<?xml version="1.0" standalone="no"?>
<!DOCTYPE svg PUBLIC "-//W3C//DTD SVG 20010904//EN"
 "http://www.w3.org/TR/2001/REC-SVG-20010904/DTD/svg10.dtd">
<svg version="1.0" xmlns="http://www.w3.org/2000/svg"
 width="196.000000pt" height="196.000000pt" viewBox="0 0 196.000000 196.000000"
 preserveAspectRatio="xMidYMid meet">
<metadata>
Created by potrace 1.11, written by Peter Selinger 2001-2013
</metadata>
<g transform="translate(0.000000,196.000000) scale(0.100000,-0.100000)"
fill="#000000" stroke="none">
<path d="M835 1945 c-263 -57 -470 -259 -536 -525 -11 -44 -14 -191 -14 -735
l0 -680 695 0 695 0 0 680 c0 544 -3 691 -14 735 -93 372 -460 605 -826 525z
m458 -257 c14 -24 44 -54 66 -68 23 -14 41 -27 41 -31 0 -3 -18 -15 -40 -28
-23 -13 -51 -40 -66 -67 -14 -24 -30 -42 -34 -39 -5 3 -19 23 -30 43 -13 23
-39 48 -66 62 -24 14 -44 27 -44 30 0 3 20 16 43 29 27 15 54 41 70 67 15 24
28 44 31 44 2 0 15 -19 29 -42z m-520 -218 c24 -39 48 -63 87 -87 30 -18 56
-36 57 -40 2 -5 -23 -24 -55 -44 -42 -27 -67 -52 -92 -93 -19 -31 -38 -55 -42
-54 -5 2 -23 28 -41 58 -24 39 -48 63 -87 87 -30 18 -55 37 -55 43 0 6 25 25
55 43 41 25 63 48 89 90 18 32 38 56 42 55 5 -2 24 -28 42 -58z m815 -357 l-3
-108 -150 0 -150 0 -3 108 -3 107 156 0 156 0 -3 -107z m2 -303 l0 -110 -285
0 -285 0 0 103 c0 57 3 107 7 110 3 4 132 7 285 7 l278 0 0 -110z m-990 2 c13
-23 39 -48 65 -62 24 -13 41 -28 39 -32 -3 -5 -23 -17 -43 -28 -24 -12 -49
-36 -65 -65 -15 -25 -28 -45 -30 -45 -2 0 -16 20 -30 44 -15 27 -43 54 -66 67
-22 13 -40 26 -40 30 0 4 18 18 40 30 24 13 51 41 66 66 14 24 29 41 34 38 5
-3 19 -23 30 -43z m990 -307 l0 -105 -415 0 -415 0 0 105 0 105 415 0 415 0 0
-105z m0 -305 l0 -110 -545 0 -545 0 0 110 0 110 545 0 545 0 0 -110z"/>
</g>
</svg>
