<svg xmlns="http://www.w3.org/2000/svg" width="187" height="75" fill="none" viewBox="0 0 187 75">
    <path fill="#010101" fill-rule="evenodd" d="M53.36 75H0V26.68C0 11.932 11.932 0 26.68 0s26.68 11.932 26.68 26.68V75z" clip-rule="evenodd"/>
    <path fill="#fff" d="M49.95 63.365H8.3v8.3h41.65v-8.3zM50.099 51.73h-31.72v8.3H50.1v-8.3zM49.95 40.02H28.31v8.3h21.64v-8.3zM50.1 28.31H38.39v8.3H50.1v-8.3zM40.02 12.302l-.445-.222-.223-.37L37.5 8.597l-1.853 3.113-.223.37-.37.222-3.113 1.853 3.113 1.853.37.222.223.445 1.852 3.038 1.853-3.038.223-.445.444-.222 3.039-1.853-3.039-1.853zM13.34 45.652l-.445-.222-.223-.37-1.853-3.113-1.852 3.112-.223.37-.37.223-3.113 1.853 3.113 1.853.37.222.223.445 1.852 3.038 1.853-3.038.223-.445.444-.222 3.039-1.853-3.039-1.853zM20.38 21.122l-.444-.223-.223-.37-2.593-4.447-2.668 4.447-.223.37-.37.223-4.447 2.668 4.447 2.593.37.223.223.444 2.668 4.373 2.593-4.373.223-.444.445-.223 4.372-2.593-4.372-2.668z"/>
    <path fill="#000" d="M66.7 32.831c0-4.372 2.742-7.337 6.818-7.337 4.224 0 6.818 3.039 6.818 7.337 0 4.373-2.668 7.337-6.818 7.337-4.15 0-6.818-3.038-6.818-7.337zm6.818-4.817c-2.742 0-3.928 1.927-3.928 4.817s1.334 4.817 3.928 4.817c2.668 0 4.002-1.927 4.002-4.817 0-2.964-1.334-4.817-4.002-4.817zM96.567 32.831c0 4.15-2.446 7.337-6.3 7.337-1.556 0-2.89-.519-3.853-1.334v7.115H83.67V25.865h2.372v1.26c1.037-1.038 2.371-1.63 4.076-1.63 4.002-.075 6.448 3.112 6.448 7.336zm-2.89 0c0-2.742-1.26-4.891-3.928-4.891-2.52 0-3.706 2-3.706 4.891 0 2.89 1.112 4.891 3.78 4.891 2.593 0 3.853-2.149 3.853-4.891zM105.904 37.574c1.63 0 2.964-.741 3.631-2.223l2.668.815c-1.038 2.52-3.483 3.928-6.151 3.928-4.299 0-6.967-3.039-6.967-7.189 0-4.52 2.668-7.485 6.819-7.485 4.52 0 6.744 3.335 6.447 8.078h-10.375c.222 2.52 1.556 4.076 3.928 4.076zm-3.854-6.225h7.559c-.222-2.224-1.26-3.558-3.705-3.558-2.298 0-3.484 1.483-3.854 3.558zM127.841 32.98v6.743h-2.742v-6.67c0-1.778-.222-3.409-1.26-4.298-.593-.519-1.408-.815-2.446-.741-.741.074-1.482.296-2.001.741-.592.445-.963 1.186-1.111 2.075-.148.741-.148 1.853-.148 2.816v6.077h-2.742V25.865h2.371v1.704l.445-.519c.889-1.037 2.297-1.482 3.557-1.556 1.482-.074 3.039.148 4.298 1.26 1.705 1.482 1.853 3.928 1.779 6.225zM134.659 20.825v2.594h-2.742v-2.594h2.742zm-2.668 18.973h2.742V25.864h-2.742v13.933zM151.556 32.98v6.743h-2.742v-6.67c0-1.778-.222-3.409-1.26-4.298-.593-.519-1.408-.815-2.445-.741-.741.074-1.483.296-2.001.741-.593.445-.964 1.186-1.112 2.075-.148.741-.148 1.853-.148 2.816v6.077h-2.742V25.865h2.371v1.704l.445-.519c.889-1.037 2.297-1.482 3.557-1.556 1.482-.074 3.039.148 4.299 1.26 1.63 1.482 1.778 3.928 1.778 6.225zM167.49 25.865v14.303c0 .741-.074 1.408-.148 2-.593 2.817-2.89 4.151-6.151 4.151-2.298 0-4.447-1.037-5.484-3.038l2.445-1.26c.593 1.185 1.853 1.704 3.039 1.704 2.297 0 3.631-1.26 3.631-3.631V38.76c-.963.89-2.297 1.334-3.854 1.334-3.853 0-6.299-3.187-6.299-7.337 0-4.224 2.446-7.337 6.373-7.337 1.705 0 3.113.593 4.151 1.63v-1.26h2.297v.075zm-2.371 6.966c0-2.89-1.186-4.891-3.706-4.891-2.668 0-3.928 2.149-3.928 4.891s1.26 4.891 3.854 4.891c2.668 0 3.78-2.075 3.78-4.891zM80.336 60.178c0 4.15-2.446 7.337-6.3 7.337-1.556 0-2.89-.519-3.853-1.334v7.189H67.44V53.21h2.372v1.26c1.038-1.037 2.371-1.63 4.076-1.63 4.002 0 6.448 3.187 6.448 7.337zm-2.817 0c0-2.742-1.26-4.891-3.927-4.891-2.52 0-3.706 2-3.706 4.89 0 2.891 1.112 4.892 3.78 4.892 2.594.074 3.853-2.075 3.853-4.891zM92.638 67.144v-1.927c-1.186 1.63-2.742 2.372-5.114 2.372-2.742 0-4.594-1.705-4.594-4.298 0-1.927 1.037-3.261 2.816-3.854 1.853-.667 4.224-.964 6.596-1.26-.074-1.927-1.334-2.816-3.039-2.816-1.556 0-2.89.593-3.409 2.149l-2.446-.741c.816-2.298 2.89-3.854 5.93-3.854 2.816 0 4.668 1.26 5.335 3.483.223.667.297 1.482.297 2.372v8.448h-2.372v-.074zm-.296-6.744c-2.075.297-3.335.445-4.67.815-1.26.371-2.148.964-2.148 2.075 0 1.112.889 2.076 2.445 2.076 1.63 0 3.113-.742 3.78-2.075.519-.816.593-2.076.593-2.89zM102.643 61.586c0 1.112-.074 1.927.296 2.52.371.593.964.889 1.557.963.741.074 1.556 0 2.297-.074v2.297c-1.038.223-2.594.223-3.557.075-1.26-.223-2.149-.667-2.742-1.78-.667-1.037-.52-2.297-.52-3.853v-6.3h-2.667v-2.148h2.668v-3.854h2.668v3.854h4.15v2.149h-4.15v6.15zM122.727 60.4v6.744h-2.742v-6.67c0-1.778-.222-3.409-1.26-4.298-.593-.519-1.408-.815-2.446-.741-.741.074-1.482.296-2.001.74-.592.446-.963 1.187-1.111 2.076-.148.741-.148 1.853-.148 2.816v6.151h-2.743V48.617h2.372v6.373l.445-.519c.889-1.037 2.297-1.482 3.557-1.556 1.482-.074 3.039.148 4.298 1.26 1.631 1.482 1.853 3.928 1.779 6.225zM144.664 53.211l-4.224 13.933h-2.298l-3.187-10.079-3.261 10.08h-2.149l-4.224-13.934h2.668l2.89 9.56 2.965-9.56h2.297l2.89 9.56 2.965-9.56h2.668zM155.632 67.144v-1.927c-1.185 1.63-2.742 2.372-5.113 2.372-2.742 0-4.595-1.705-4.595-4.298 0-1.927 1.038-3.261 2.816-3.854 1.853-.667 4.224-.964 6.596-1.26-.074-1.927-1.334-2.816-3.039-2.816-1.556 0-2.89.593-3.409 2.149l-2.445-.741c.815-2.298 2.89-3.854 5.929-3.854 2.816 0 4.669 1.26 5.336 3.483.222.667.296 1.482.296 2.372v8.448h-2.372v-.074zm-.296-6.744c-2.075.297-3.335.445-4.669.815-1.26.371-2.149.964-2.149 2.075 0 1.112.889 2.076 2.445 2.076 1.631 0 3.113-.742 3.78-2.075.593-.816.593-2.076.593-2.89zM173.271 53.211l-7.708 20.159h-2.594l2.298-6.152v-.074l-5.633-13.859h2.816l4.076 10.45 3.928-10.45h2.817v-.074zM183.943 57.436c-.223-1.408-1.483-2.15-3.039-2.224-1.556-.074-2.742.593-2.742 1.63 0 .816.667 1.26 1.779 1.631.667.223 1.408.445 2.594.667 2.742.667 4.224 1.705 4.224 4.076 0 2.817-2.372 4.373-5.558 4.373-3.261 0-5.707-1.26-6.226-4.298l2.742-.445c.371 1.63 1.853 2.371 3.558 2.371 1.482 0 2.668-.667 2.668-1.852 0-1.112-.89-1.483-2.15-1.853l-3.112-.89c-1.927-.518-3.261-1.63-3.261-3.63 0-2.743 2.594-4.077 5.41-4.077 3.039 0 5.484 1.482 5.855 4.076l-2.742.445z"/>
</svg>
